<?xml version="1.0" encoding="UTF-8" standalone="no"?>
<!-- Created with Inkscape (http://www.inkscape.org/) -->

<svg
   xmlns:dc="http://purl.org/dc/elements/1.1/"
   xmlns:cc="http://creativecommons.org/ns#"
   xmlns:rdf="http://www.w3.org/1999/02/22-rdf-syntax-ns#"
   xmlns:svg="http://www.w3.org/2000/svg"
   xmlns="http://www.w3.org/2000/svg"
   xmlns:sodipodi="http://sodipodi.sourceforge.net/DTD/sodipodi-0.dtd"
   xmlns:inkscape="http://www.inkscape.org/namespaces/inkscape"
   width="48"
   height="48"
   viewBox="0 0 12.7 12.7"
   version="1.1"
   id="svg8"
   inkscape:version="0.92.4 (5da689c313, 2019-01-14)"
   sodipodi:docname="wallpaper.svg">
  <defs
     id="defs2" />
  <sodipodi:namedview
     id="base"
     pagecolor="#ffffff"
     bordercolor="#666666"
     borderopacity="1.0"
     inkscape:pageopacity="0.0"
     inkscape:pageshadow="2"
     inkscape:zoom="7.9195959"
     inkscape:cx="34.30982"
     inkscape:cy="19.153441"
     inkscape:document-units="mm"
     inkscape:current-layer="layer1"
     showgrid="false"
     units="px"
     inkscape:window-width="1366"
     inkscape:window-height="749"
     inkscape:window-x="0"
     inkscape:window-y="19"
     inkscape:window-maximized="0" />
  <metadata
     id="metadata5">
    <rdf:RDF>
      <cc:Work
         rdf:about="">
        <dc:format>image/svg+xml</dc:format>
        <dc:type
           rdf:resource="http://purl.org/dc/dcmitype/StillImage" />
        <dc:title></dc:title>
      </cc:Work>
    </rdf:RDF>
  </metadata>
  <g
     inkscape:label="Layer 1"
     inkscape:groupmode="layer"
     id="layer1"
     transform="translate(0,-284.3)">
    <rect
       style="fill:none;stroke:#000000;stroke-width:0.26458332"
       id="rect102"
       width="11.759859"
       height="10.323286"
       x="0.46772167"
       y="285.474" />
    <path
       style="fill:none;stroke:#000000;stroke-width:0.26458332px;stroke-linecap:butt;stroke-linejoin:miter;stroke-opacity:1"
       d="m 0.50113035,292.25597 c 0.0986379,-0.0789 0.17245084,-0.18431 0.26726954,-0.26727 0.10732746,-0.0939 0.22371026,-0.17697 0.33408691,-0.26727 0.2972782,-0.24323 0.096268,-0.0889 0.3340869,-0.26727 0.075429,-0.0566 0.152441,-0.11819 0.2338608,-0.16705 0.021353,-0.0128 0.045465,-0.0206 0.066817,-0.0334 0.03443,-0.0206 0.064313,-0.0489 0.1002261,-0.0668 0.062996,-0.0315 0.1350579,-0.0407 0.2004521,-0.0668 0.12356,-0.0494 0.013758,-0.0357 0.2004522,-0.0668 0.039504,-0.007 0.092254,0 0.1336347,0 0.08909,0 0.1781797,0 0.2672696,0 0.1002261,0 0.2004521,0 0.3006782,0 0.022273,0 0.044545,0 0.066817,0 0.011136,0 0.023447,-0.005 0.033409,0 0.1528985,0.0765 -0.1417669,-0.0138 0.100226,0.0668 0.084357,0.0281 -0.034793,-0.0679 0.1002263,0.0334 0.025199,0.0189 0.039808,0.0506 0.066817,0.0668 0.030197,0.0181 0.068728,0.0177 0.100226,0.0334 0.035913,0.018 0.06332,0.051 0.1002261,0.0668 0.042203,0.0181 0.092566,0.0129 0.1336347,0.0334 0.049803,0.0249 0.086417,0.0707 0.1336349,0.10023 0.042233,0.0264 0.090394,0.0421 0.1336347,0.0668 0.034862,0.0199 0.065364,0.0469 0.100226,0.0668 0.043241,0.0247 0.090394,0.0421 0.1336347,0.0668 0.080698,0.0133 0.1077129,0.0941 0.1670436,0.13363 0.041438,0.0276 0.093108,0.0379 0.1336347,0.0668 0.2763914,0.19742 -0.064669,0.0156 0.2004523,0.16704 0.043241,0.0247 0.08909,0.0445 0.1336347,0.0668 0.044545,0.0223 0.086388,0.0511 0.1336347,0.0668 0.05387,0.018 0.1131737,0.0155 0.1670434,0.0334 0.047247,0.0158 0.085319,0.0547 0.1336349,0.0668 0.043215,0.0108 0.089434,-0.006 0.1336347,0 0.045561,0.006 0.08818,0.0269 0.1336347,0.0334 0.033073,0.005 0.066817,0 0.100226,0 0.033409,0 0.066818,0 0.1002263,0 0.1083326,0 0.2328394,0.0172 0.3340867,-0.0334 0.00249,-10e-4 0.2623349,-0.19737 0.2672697,-0.20046 0.042232,-0.0264 0.091402,-0.0404 0.1336347,-0.0668 0.3754379,-0.23465 -0.028268,0.004 0.2004523,-0.16705 0.01992,-0.0149 0.044545,-0.0223 0.066817,-0.0334 0.033409,-0.0223 0.06938,-0.0411 0.100226,-0.0668 0.060494,-0.0504 0.1040474,-0.1198 0.1670434,-0.16705 0.019921,-0.0149 0.04921,-0.0158 0.066817,-0.0334 0.017608,-0.0176 0.012689,-0.053 0.033409,-0.0668 0.018531,-0.0124 0.046896,0.01 0.066818,0 0.1331219,-0.0666 1.466e-4,-0.0669 0.1336347,-0.10023 0.021609,-0.005 0.04521,0.005 0.066817,0 0.024157,-0.006 0.043697,-0.0242 0.066817,-0.0334 0.032697,-0.0131 0.066817,-0.0223 0.100226,-0.0334 0.033409,-0.0111 0.065489,-0.0276 0.1002263,-0.0334 0.032954,-0.005 0.067466,0.007 0.100226,0 0.024418,-0.005 0.0424,-0.0285 0.066817,-0.0334 0.03276,-0.007 0.066817,0 0.100226,0 0.077954,0 0.1559073,0 0.2338609,0 0.1120609,0 0.2299002,-0.0187 0.3340868,0.0334 0.035913,0.018 0.065796,0.0462 0.100226,0.0668 0.1040913,0.0625 0.043904,0.002 0.1670436,0.10023 0.024596,0.0197 0.042221,0.0471 0.066817,0.0668 0.031354,0.0251 0.06938,0.0411 0.100226,0.0668 0.036296,0.0303 0.066817,0.0668 0.100226,0.10023 0.033409,0.0334 0.069979,0.0639 0.1002263,0.10023 0.1288788,0.15465 -0.00377,0.054 0.1670433,0.20045 0.042276,0.0362 0.08909,0.0668 0.1336347,0.10022 0.044545,0.0334 0.086417,0.0707 0.1336347,0.10023 0.042233,0.0264 0.090394,0.0421 0.133635,0.0668 0.034862,0.0199 0.064313,0.0489 0.100226,0.0668 0.031498,0.0157 0.068728,0.0177 0.100226,0.0334 0.035913,0.018 0.064313,0.0489 0.100226,0.0668 0.031498,0.0158 0.066817,0.0223 0.1002261,0.0334 0.03341,0.0111 0.06636,0.0237 0.100226,0.0334 0.04415,0.0126 0.08818,0.0269 0.133635,0.0334 0.03307,0.005 0.06682,0 0.100226,0 0.111362,0 0.222725,0 0.334087,0 0.122498,0 0.244997,0 0.367496,0 0.02227,0 0.04454,0 0.06682,0 0.02227,0 0.04521,0.005 0.06682,0 0.02416,-0.006 0.04266,-0.0274 0.06682,-0.0334 0.02161,-0.005 0.04454,0 0.06682,0 0.02798,0 0.141637,0.006 0.167044,0 0.02416,-0.006 0.0424,-0.0285 0.06682,-0.0334 0.254863,0 -0.02636,0.0149 0.167043,-0.0334 0.02161,-0.005 0.04454,0 0.06682,0 0.02227,-0.0111 0.04319,-0.0255 0.06682,-0.0334 0.01842,-0.006 0.126492,0.007 0.133635,0 0.0079,-0.008 0,-0.0223 0,-0.0334 0.02227,-0.0223 0.03865,-0.0527 0.06682,-0.0668 0.01992,-0.01 0.0469,0.01 0.06682,0 0.01,-0.005 -0.0079,-0.0255 0,-0.0334 0.0079,-0.008 0.02345,0.005 0.03341,0 0.08257,-0.0413 -0.01153,-0.0334 0.06682,-0.0334"
       id="path106"
       inkscape:connector-curvature="0" />
    <circle
       style="fill:none;stroke:#000000;stroke-width:0.26458332"
       id="path108"
       cx="10.005902"
       cy="287.46182"
       r="1.0857824" />
  </g>
</svg>
